<svg width="37" height="37" viewBox="0 0 37 37" fill="none" xmlns="http://www.w3.org/2000/svg">
<path d="M17.1091 23.548C17.477 23.9159 17.9063 24.0999 18.3968 24.0999C18.8874 24.0999 19.3167 23.9159 19.6846 23.548L25.3877 17.8449C25.7249 17.5077 25.8856 17.0784 25.8696 16.5572C25.8549 16.0359 25.6789 15.6067 25.3417 15.2694C24.9737 14.9014 24.5445 14.7175 24.0539 14.7175C23.5633 14.7175 23.134 14.9014 22.7661 15.2694L18.3968 19.6386L13.9816 15.2234C13.6443 14.8861 13.2151 14.7248 12.6938 14.7396C12.1726 14.7555 11.7433 14.9321 11.406 15.2694C11.0381 15.6373 10.8541 16.0666 10.8541 16.5572C10.8541 17.0477 11.0381 17.477 11.406 17.8449L17.1091 23.548ZM18.3968 36.7937C15.852 36.7937 13.4604 36.3105 11.2221 35.344C8.9838 34.3788 7.03679 33.0683 5.38108 31.4126C3.72536 29.7569 2.41489 27.8099 1.44967 25.5716C0.483224 23.3333 0 20.9417 0 18.3968C0 15.852 0.483224 13.4604 1.44967 11.2221C2.41489 8.9838 3.72536 7.03679 5.38108 5.38108C7.03679 3.72536 8.9838 2.41428 11.2221 1.44783C13.4604 0.482611 15.852 0 18.3968 0C20.9417 0 23.3333 0.482611 25.5716 1.44783C27.8099 2.41428 29.7569 3.72536 31.4126 5.38108C33.0683 7.03679 34.3788 8.9838 35.344 11.2221C36.3105 13.4604 36.7937 15.852 36.7937 18.3968C36.7937 20.9417 36.3105 23.3333 35.344 25.5716C34.3788 27.8099 33.0683 29.7569 31.4126 31.4126C29.7569 33.0683 27.8099 34.3788 25.5716 35.344C23.3333 36.3105 20.9417 36.7937 18.3968 36.7937ZM18.3968 33.1143C22.4748 33.1143 25.9475 31.6812 28.815 28.815C31.6812 25.9475 33.1143 22.4748 33.1143 18.3968C33.1143 14.3189 31.6812 10.8462 28.815 7.97871C25.9475 5.11248 22.4748 3.67937 18.3968 3.67937C14.3189 3.67937 10.8468 5.11248 7.98055 7.97871C5.1131 10.8462 3.67937 14.3189 3.67937 18.3968C3.67937 22.4748 5.1131 25.9475 7.98055 28.815C10.8468 31.6812 14.3189 33.1143 18.3968 33.1143Z" fill="#364330"/>
</svg>
