<svg width="12" height="8" viewBox="0 0 12 8" fill="none" xmlns="http://www.w3.org/2000/svg">
<path fill-rule="evenodd" clip-rule="evenodd" d="M7.86445 7.32516C8.0902 7.55506 8.45953 7.55836 8.68938 7.33256L11.659 4.41594C11.7707 4.30625 11.8336 4.15629 11.8336 3.99976C11.8336 3.84323 11.7707 3.69326 11.659 3.58358L8.68938 0.666906C8.45953 0.441166 8.0902 0.444496 7.86445 0.674346C7.63871 0.904196 7.64203 1.27353 7.87188 1.49927L9.82393 3.41643H0.750332C0.428162 3.41643 0.166992 3.67759 0.166992 3.99976C0.166992 4.32193 0.428162 4.58309 0.750332 4.58309H9.82393L7.87188 6.50025C7.64203 6.72599 7.63871 7.09536 7.86445 7.32516Z" fill="#F19025"/>
</svg>
