<svg width="46" height="42" viewBox="0 0 46 42" fill="none" xmlns="http://www.w3.org/2000/svg">
<path d="M43.1375 8.11726L28.3333 17.8356V9.63309C28.3342 9.36501 28.2591 9.10217 28.1166 8.87511C27.974 8.64805 27.77 8.46609 27.5282 8.35037C27.2864 8.23465 27.0167 8.18992 26.7504 8.22138C26.4842 8.25284 26.2324 8.35919 26.0242 8.52809L17.0992 15.9939H11.3333V1.91226L2.83333 -0.000244141V15.9939H0V40.0773C0 40.453 0.149255 40.8133 0.414932 41.079C0.680609 41.3447 1.04094 41.4939 1.41667 41.4939H43.9167C44.2924 41.4939 44.6527 41.3447 44.9184 41.079C45.1841 40.8133 45.3333 40.453 45.3333 40.0773V9.29309C45.332 9.03797 45.2618 8.78794 45.1302 8.56941C44.9986 8.35087 44.8103 8.17194 44.5854 8.05151C44.3605 7.93108 44.1073 7.87361 43.8524 7.88518C43.5976 7.89676 43.3506 7.97694 43.1375 8.11726ZM17 37.2439H5.66667V34.4106H17V37.2439ZM17 31.5773H5.66667V28.7439H17V31.5773ZM17 25.9106H5.66667V23.0773H17V25.9106ZM28.3333 37.2439H25.5V32.9939H28.3333V37.2439ZM28.3333 28.7439H25.5V24.4939H28.3333V28.7439ZM34 37.2439H31.1667V32.9939H34V37.2439ZM34 28.7439H31.1667V24.4939H34V28.7439ZM39.6667 37.2439H36.8333V32.9939H39.6667V37.2439ZM39.6667 28.7439H36.8333V24.4939H39.6667V28.7439Z" fill="#F19025"/>
</svg>
