<svg width="46" height="42" viewBox="0 0 46 42" fill="none" xmlns="http://www.w3.org/2000/svg">
<path d="M43.1375 8.1175L28.3333 17.8358V9.63333C28.3342 9.36525 28.2591 9.10241 28.1166 8.87535C27.974 8.64829 27.77 8.46633 27.5282 8.35061C27.2864 8.23489 27.0167 8.19016 26.7504 8.22162C26.4842 8.25308 26.2324 8.35944 26.0242 8.52833L17.0992 15.9942H11.3333V1.9125L2.83333 0V15.9942H0V40.0775C0 40.4532 0.149255 40.8136 0.414932 41.0792C0.680609 41.3449 1.04094 41.4942 1.41667 41.4942H43.9167C44.2924 41.4942 44.6527 41.3449 44.9184 41.0792C45.1841 40.8136 45.3333 40.4532 45.3333 40.0775V9.29333C45.332 9.03822 45.2618 8.78819 45.1302 8.56965C44.9986 8.35112 44.8103 8.17219 44.5854 8.05175C44.3605 7.93132 44.1073 7.87386 43.8524 7.88543C43.5976 7.897 43.3506 7.97718 43.1375 8.1175ZM17 37.2442H5.66667V34.4108H17V37.2442ZM17 31.5775H5.66667V28.7442H17V31.5775ZM17 25.9108H5.66667V23.0775H17V25.9108ZM28.3333 37.2442H25.5V32.9942H28.3333V37.2442ZM28.3333 28.7442H25.5V24.4942H28.3333V28.7442ZM34 37.2442H31.1667V32.9942H34V37.2442ZM34 28.7442H31.1667V24.4942H34V28.7442ZM39.6667 37.2442H36.8333V32.9942H39.6667V37.2442ZM39.6667 28.7442H36.8333V24.4942H39.6667V28.7442Z" fill="#F19025"/>
</svg>
