<svg width="46" height="48" viewBox="0 0 46 48" fill="none" xmlns="http://www.w3.org/2000/svg">
<path d="M30.5922 0.876059L6.57194 14.2631C5.70378 14.7469 5.39223 15.8429 5.87608 16.7111L14.9597 33.0098C15.4436 33.878 16.5396 34.1896 17.4077 33.7057L41.428 20.3187C42.2962 19.8348 42.6077 18.7388 42.1239 17.8707L33.0403 1.57193C32.5564 0.703766 31.4604 0.392215 30.5922 0.876059Z" fill="#F19025" fill-opacity="0.26"/>
<path d="M40.4404 15.3013H7.86404C6.87016 15.3013 6.06445 16.107 6.06445 17.1009V40.456C6.06445 41.4499 6.87016 42.2556 7.86404 42.2556H40.4404C41.4342 42.2556 42.24 41.4499 42.24 40.456V17.1009C42.24 16.107 41.4342 15.3013 40.4404 15.3013Z" fill="#F19025"/>
<path fill-rule="evenodd" clip-rule="evenodd" d="M42.24 17.4217C42.0964 17.8105 41.8185 18.152 41.4281 18.3696L17.4077 31.7565C16.5395 32.2404 15.4435 31.9288 14.9597 31.0607L6.06445 15.0999C6.06496 14.1064 6.87047 13.3013 7.86403 13.3013H40.4404C40.5188 13.3013 40.5961 13.3063 40.6718 13.316L42.124 15.9216C42.1697 16.0036 42.2083 16.0876 42.24 16.173V17.4217Z" fill="#364330"/>
<path d="M36.5647 32.3251C37.9358 32.3251 39.0473 31.2136 39.0473 29.8425C39.0473 28.4714 37.9358 27.3599 36.5647 27.3599C35.1935 27.3599 34.082 28.4714 34.082 29.8425C34.082 31.2136 35.1935 32.3251 36.5647 32.3251Z" fill="white"/>
</svg>
