<svg width="45" height="45" viewBox="0 0 45 45" fill="none" xmlns="http://www.w3.org/2000/svg">
<path d="M15.7049 38.97C17.8199 37.935 18.4499 36.855 18.1349 34.74C19.3499 34.875 20.4299 34.605 21.2849 33.705C22.1399 32.805 22.4099 31.725 22.1849 30.555C22.7699 30.465 23.3999 30.465 23.9399 30.285C26.3699 29.52 27.1349 26.46 25.2899 24.66C24.1649 23.535 22.9499 22.41 21.7799 21.33C18.7199 18.405 11.6999 11.745 11.2949 11.34C10.8457 10.8961 10.5892 10.2932 10.5808 9.66172C10.5724 9.03023 10.8127 8.42076 11.2499 7.965C12.1499 7.02 13.6349 6.93 14.6249 7.875C16.1099 9.225 23.2649 16.065 25.4249 18.045C26.0099 18.585 26.6399 19.035 27.4049 19.35C28.4399 19.755 29.3849 19.665 30.1949 18.9C30.5999 18.54 32.5799 15.39 33.2999 14.265C34.2449 12.78 36.2249 12.51 37.5749 13.59C38.6999 14.49 38.9699 16.11 38.2049 17.415C37.0799 19.26 33.7499 24.84 33.1649 25.74C33.1028 25.8403 33.0663 25.9542 33.0584 26.0719C33.0506 26.1896 33.0717 26.3074 33.1199 26.415C33.6599 27.45 34.1549 28.53 34.6499 29.61C36.3599 33.12 35.0549 36.99 31.5899 38.7C29.2499 39.87 26.8649 40.995 24.4799 42.12C22.9909 42.8166 21.2963 42.9352 19.7248 42.453C18.1532 41.9707 16.8169 40.9219 15.9749 39.51L15.7049 38.97Z" fill="#F19025"/>
<path d="M12.0149 22.275C12.3749 22.275 12.9599 22.455 13.4099 22.905C15.7949 25.155 18.1799 27.36 20.5199 29.61C21.4649 30.51 21.5099 32.04 20.6099 32.985C19.6649 33.975 18.1799 34.02 17.1899 33.12C14.8267 30.9087 12.4717 28.6887 10.1249 26.46C9.40492 25.74 9.17992 24.705 9.58492 23.76C9.89992 22.86 10.7999 22.275 12.0149 22.275V22.275ZM25.2899 27.405C25.2449 28.08 24.8399 28.845 23.8949 29.295C22.9949 29.7 22.0949 29.61 21.3299 28.98C20.2049 27.99 15.4799 23.49 14.2199 22.275C13.5449 21.645 13.2749 20.88 13.4999 19.935C13.9499 18.045 16.1099 17.415 17.5499 18.72C18.4499 19.53 19.3049 20.385 20.2049 21.24C21.5549 22.5 22.8599 23.805 24.2099 25.065C24.8399 25.56 25.2899 26.19 25.2899 27.405ZM8.90992 27.54C9.53992 27.54 10.1249 27.855 10.6199 28.305C12.2399 29.835 16.1099 33.48 16.4249 33.795C17.4599 34.785 17.5049 36.315 16.5599 37.305C15.6149 38.25 14.1299 38.295 13.0949 37.305C11.2049 35.505 9.31492 33.75 7.42492 31.95C6.70492 31.275 6.20992 30.51 6.43492 29.475C6.65992 28.305 7.64992 27.495 8.90992 27.54V27.54ZM30.9599 10.71C30.4649 10.665 30.1499 10.485 29.9699 10.125C29.7899 9.72 29.8349 9.36 30.1049 9.045C30.1949 8.91 30.3299 8.82 30.4649 8.73L33.0299 6.84C33.5699 6.48 34.1549 6.525 34.4699 6.975C34.8299 7.425 34.6949 8.01 34.1999 8.415C33.2999 9.09 32.3999 9.765 31.4999 10.395C31.3649 10.575 31.0949 10.665 30.9599 10.71ZM22.9049 7.74C22.9049 8.235 22.6799 8.595 22.3199 8.73C21.9599 8.865 21.4649 8.82 21.2399 8.505C20.4647 7.50379 19.7145 6.48348 18.9899 5.445C18.6749 4.995 18.8549 4.455 19.2599 4.14C19.6649 3.87 20.2499 3.915 20.5649 4.365C21.2957 5.33203 22.0157 6.30709 22.7249 7.29C22.8149 7.425 22.8599 7.65 22.9049 7.74V7.74ZM28.3499 8.46C27.6299 8.46 27.2249 7.785 27.4949 7.065C27.6299 6.66 27.8549 6.255 28.0349 5.895C28.3499 5.22 28.6199 4.545 28.9349 3.87C29.1599 3.375 29.6549 3.15 30.1499 3.285C30.6899 3.465 30.9599 4.005 30.7349 4.545C30.2521 5.69698 29.742 6.8373 29.2049 7.965C29.0699 8.325 28.7549 8.46 28.3499 8.46V8.46ZM26.0549 6.57C26.0549 7.29 25.7399 7.695 25.1999 7.74C24.6599 7.785 24.2099 7.425 24.1199 6.795C23.9849 5.67 23.8499 4.545 23.7599 3.375C23.7599 3.15 23.7599 2.88 23.8949 2.655C23.9754 2.48167 24.1138 2.34186 24.2863 2.2597C24.4589 2.17754 24.6547 2.1582 24.8399 2.205C25.2899 2.295 25.5599 2.52 25.6499 2.97C25.7399 3.78 25.8299 4.635 25.9199 5.445C25.9649 5.895 26.0099 6.3 26.0549 6.57V6.57Z" fill="#F19025"/>
</svg>
