<svg width="8" height="13" viewBox="0 0 8 13" fill="none" xmlns="http://www.w3.org/2000/svg">
<path fill-rule="evenodd" clip-rule="evenodd" d="M0.708417 0.145917C0.754863 0.0993541 0.810038 0.0624112 0.870783 0.0372047C0.931528 0.0119983 0.99665 -0.000976562 1.06242 -0.000976562C1.12818 -0.000976562 1.19331 0.0119983 1.25405 0.0372047C1.3148 0.0624112 1.36997 0.0993541 1.41642 0.145917L7.41642 6.14592C7.46298 6.19236 7.49992 6.24754 7.52513 6.30828C7.55034 6.36903 7.56331 6.43415 7.56331 6.49992C7.56331 6.56568 7.55034 6.63081 7.52513 6.69155C7.49992 6.7523 7.46298 6.80747 7.41642 6.85392L1.41642 12.8539C1.32253 12.9478 1.19519 13.0005 1.06242 13.0005C0.929641 13.0005 0.802304 12.9478 0.708417 12.8539C0.61453 12.76 0.561785 12.6327 0.561785 12.4999C0.561785 12.3671 0.61453 12.2398 0.708417 12.1459L6.35542 6.49992L0.708417 0.853917C0.661854 0.807472 0.624911 0.752296 0.599704 0.691551C0.574498 0.630806 0.561523 0.565685 0.561523 0.499917C0.561523 0.43415 0.574498 0.369029 0.599704 0.308284C0.624911 0.247539 0.661854 0.192363 0.708417 0.145917Z" fill="#F19025"/>
</svg>
