<svg width="270" height="64" viewBox="0 0 270 64" fill="none" xmlns="http://www.w3.org/2000/svg">
<path d="M0 32C0 14.3269 14.3269 0 32 0H238C255.673 0 270 14.3269 270 32C270 49.6731 255.673 64 238 64H32C14.3269 64 0 49.6731 0 32Z" fill="#364330"/>
<path d="M40.039 32.9473L26.0477 20.0222C25.4799 20.1433 25 20.606 25 21.5522V44.4023C25 45.2684 25.3713 45.8922 26.0694 45.9524L40.039 32.9473Z" fill="#00D3FF"/>
<g clip-path="url(#clip0_1_28)">
<path d="M44.4264 36.9736C47.7661 35.2824 50.2978 33.9937 50.516 33.8935C51.2141 33.5511 51.935 32.6449 50.516 31.941C50.0579 31.7196 47.5911 30.471 44.4264 28.8608L40.0391 32.9473L44.4264 36.9735V36.9736Z" fill="#FFD900"/>
<path d="M40.039 32.9473L26.0693 45.9324C26.3972 45.9724 26.7674 45.8922 27.2039 45.6709C28.1202 45.2084 37.8339 40.3159 44.4263 36.9745L40.039 32.9473Z" fill="#F43249"/>
<path d="M40.039 32.9472L44.4263 28.8809C44.4263 28.8809 28.1864 20.7069 27.2038 20.2244C26.8337 20.0222 26.4188 19.9621 26.0476 20.0222L40.039 32.9472Z" fill="#00EE76"/>
</g>
<path d="M67.3998 40.23C66.1885 40.23 65.0692 40.023 64.0418 39.609C63.0145 39.1797 62.1175 38.5893 61.3508 37.838C60.5995 37.0867 60.0168 36.2127 59.6028 35.216C59.1888 34.204 58.9818 33.1077 58.9818 31.927C58.9818 30.7617 59.1888 29.6807 59.6028 28.684C60.0322 27.672 60.6302 26.798 61.3968 26.062C62.1635 25.3107 63.0605 24.728 64.0878 24.314C65.1305 23.9 66.2498 23.693 67.4458 23.693C68.2892 23.693 69.1018 23.808 69.8838 24.038C70.6658 24.268 71.3712 24.59 71.9998 25.004C72.6285 25.418 73.1498 25.8857 73.5638 26.407L71.6778 28.385C71.2485 27.971 70.8038 27.626 70.3438 27.35C69.8992 27.074 69.4315 26.8593 68.9408 26.706C68.4502 26.5527 67.9442 26.476 67.4228 26.476C66.6562 26.476 65.9432 26.614 65.2838 26.89C64.6398 27.166 64.0725 27.5493 63.5818 28.04C63.1065 28.5307 62.7308 29.1057 62.4548 29.765C62.1788 30.4243 62.0408 31.145 62.0408 31.927C62.0408 32.6783 62.1788 33.3913 62.4548 34.066C62.7462 34.7407 63.1448 35.331 63.6508 35.837C64.1568 36.343 64.7395 36.7417 65.3988 37.033C66.0735 37.309 66.7865 37.447 67.5378 37.447C68.1052 37.447 68.6342 37.3627 69.1248 37.194C69.6155 37.0253 70.0525 36.7953 70.4358 36.504C70.8192 36.1973 71.1105 35.8447 71.3098 35.446C71.5245 35.0473 71.6318 34.618 71.6318 34.158V33.652L72.0458 34.135H67.2848V31.467H74.5758C74.6065 31.6357 74.6295 31.8273 74.6448 32.042C74.6602 32.2413 74.6678 32.4407 74.6678 32.64C74.6832 32.824 74.6908 32.985 74.6908 33.123C74.6908 34.181 74.5068 35.147 74.1388 36.021C73.7708 36.8797 73.2495 37.6233 72.5748 38.252C71.9155 38.8807 71.1412 39.3713 70.2518 39.724C69.3778 40.0613 68.4272 40.23 67.3998 40.23ZM83.005 40.23C81.7323 40.23 80.6053 39.9617 79.624 39.425C78.658 38.8883 77.899 38.16 77.347 37.24C76.8103 36.3047 76.542 35.239 76.542 34.043C76.542 33.0923 76.6953 32.226 77.002 31.444C77.3086 30.662 77.7303 29.9873 78.267 29.42C78.819 28.8373 79.4706 28.3927 80.222 28.086C80.9886 27.764 81.8243 27.603 82.729 27.603C83.5263 27.603 84.27 27.7563 84.96 28.063C85.65 28.3697 86.248 28.7913 86.754 29.328C87.26 29.8493 87.6433 30.478 87.904 31.214C88.18 31.9347 88.3103 32.7243 88.295 33.583L88.272 34.572H78.451L77.922 32.64H85.903L85.535 33.031V32.525C85.489 32.0497 85.3356 31.6357 85.075 31.283C84.8143 30.915 84.477 30.6313 84.063 30.432C83.6643 30.2173 83.2196 30.11 82.729 30.11C81.9776 30.11 81.3413 30.2557 80.82 30.547C80.314 30.8383 79.9306 31.26 79.67 31.812C79.4093 32.3487 79.279 33.0233 79.279 33.836C79.279 34.618 79.44 35.3003 79.762 35.883C80.0993 36.4657 80.567 36.918 81.165 37.24C81.7783 37.5467 82.4913 37.7 83.304 37.7C83.8713 37.7 84.3926 37.608 84.868 37.424C85.3433 37.24 85.857 36.9103 86.409 36.435L87.812 38.39C87.398 38.7733 86.9226 39.103 86.386 39.379C85.8646 39.6397 85.3126 39.8467 84.73 40C84.1473 40.1533 83.5723 40.23 83.005 40.23ZM92.1115 40V24.797H94.9405V40H92.1115ZM89.7195 30.501V27.879H97.5855V30.501H89.7195ZM112.044 40.23C110.832 40.23 109.751 39.9617 108.801 39.425C107.85 38.873 107.099 38.1217 106.547 37.171C105.995 36.2203 105.719 35.1393 105.719 33.928C105.719 32.7167 105.995 31.6357 106.547 30.685C107.099 29.7343 107.85 28.9907 108.801 28.454C109.751 27.902 110.832 27.626 112.044 27.626C113.24 27.626 114.313 27.902 115.264 28.454C116.214 28.9907 116.958 29.7343 117.495 30.685C118.047 31.6357 118.323 32.7167 118.323 33.928C118.323 35.1393 118.047 36.2203 117.495 37.171C116.958 38.1217 116.214 38.873 115.264 39.425C114.313 39.9617 113.24 40.23 112.044 40.23ZM112.044 37.723C112.703 37.723 113.286 37.5543 113.792 37.217C114.313 36.8797 114.719 36.4273 115.011 35.86C115.317 35.2927 115.463 34.6487 115.448 33.928C115.463 33.192 115.317 32.5403 115.011 31.973C114.719 31.4057 114.313 30.961 113.792 30.639C113.286 30.3017 112.703 30.133 112.044 30.133C111.384 30.133 110.786 30.3017 110.25 30.639C109.728 30.961 109.322 31.4133 109.031 31.996C108.739 32.5633 108.594 33.2073 108.594 33.928C108.594 34.6487 108.739 35.2927 109.031 35.86C109.322 36.4273 109.728 36.8797 110.25 37.217C110.786 37.5543 111.384 37.723 112.044 37.723ZM120.853 40V27.879H123.613L123.659 30.363L123.13 30.639C123.284 30.087 123.583 29.5887 124.027 29.144C124.472 28.684 125.001 28.316 125.614 28.04C126.228 27.764 126.856 27.626 127.5 27.626C128.42 27.626 129.187 27.81 129.8 28.178C130.429 28.546 130.897 29.098 131.203 29.834C131.525 30.57 131.686 31.49 131.686 32.594V40H128.857V32.801C128.857 32.1877 128.773 31.6817 128.604 31.283C128.436 30.869 128.175 30.57 127.822 30.386C127.47 30.1867 127.04 30.0947 126.534 30.11C126.12 30.11 125.737 30.179 125.384 30.317C125.047 30.4397 124.748 30.6237 124.487 30.869C124.242 31.099 124.043 31.3673 123.889 31.674C123.751 31.9807 123.682 32.318 123.682 32.686V40H122.279C122.003 40 121.743 40 121.497 40C121.267 40 121.053 40 120.853 40ZM142.136 40V23.9H148.829C149.749 23.9 150.577 24.1223 151.313 24.567C152.064 25.0117 152.662 25.6173 153.107 26.384C153.551 27.1507 153.774 28.0093 153.774 28.96C153.774 29.926 153.551 30.8 153.107 31.582C152.662 32.3487 152.064 32.962 151.313 33.422C150.577 33.882 149.749 34.112 148.829 34.112H145.126V40H142.136ZM145.126 31.352H148.622C149.005 31.352 149.35 31.2447 149.657 31.03C149.979 30.8153 150.232 30.5317 150.416 30.179C150.615 29.8263 150.715 29.4277 150.715 28.983C150.715 28.5383 150.615 28.1473 150.416 27.81C150.232 27.4573 149.979 27.1813 149.657 26.982C149.35 26.7673 149.005 26.66 148.622 26.66H145.126V31.352ZM156.454 40V22.98H159.306V40H156.454ZM166.983 40.23C165.986 40.23 165.082 39.954 164.269 39.402C163.456 38.85 162.805 38.0987 162.314 37.148C161.823 36.1973 161.578 35.1163 161.578 33.905C161.578 32.6937 161.823 31.6127 162.314 30.662C162.805 29.7113 163.472 28.9677 164.315 28.431C165.158 27.8943 166.109 27.626 167.167 27.626C167.78 27.626 168.34 27.718 168.846 27.902C169.352 28.0707 169.797 28.316 170.18 28.638C170.563 28.96 170.878 29.328 171.123 29.742C171.384 30.156 171.56 30.6007 171.652 31.076L171.031 30.915V27.879H173.883V40H171.008V37.102L171.675 36.987C171.568 37.401 171.368 37.8073 171.077 38.206C170.801 38.5893 170.448 38.9343 170.019 39.241C169.605 39.5323 169.137 39.77 168.616 39.954C168.11 40.138 167.566 40.23 166.983 40.23ZM167.765 37.723C168.424 37.723 169.007 37.562 169.513 37.24C170.019 36.918 170.41 36.4733 170.686 35.906C170.977 35.3233 171.123 34.6563 171.123 33.905C171.123 33.169 170.977 32.5173 170.686 31.95C170.41 31.3827 170.019 30.938 169.513 30.616C169.007 30.294 168.424 30.133 167.765 30.133C167.106 30.133 166.523 30.294 166.017 30.616C165.526 30.938 165.143 31.3827 164.867 31.95C164.591 32.5173 164.453 33.169 164.453 33.905C164.453 34.6563 164.591 35.3233 164.867 35.906C165.143 36.4733 165.526 36.918 166.017 37.24C166.523 37.562 167.106 37.723 167.765 37.723ZM178.733 45.29L181.309 39.333L181.332 41.219L175.352 27.879H178.618L181.953 35.791C182.061 35.9903 182.168 36.2587 182.275 36.596C182.383 36.918 182.475 37.24 182.551 37.562L181.976 37.746C182.084 37.4547 182.199 37.148 182.321 36.826C182.444 36.4887 182.559 36.1437 182.666 35.791L185.518 27.879H188.807L183.747 40L181.677 45.29H178.733ZM194.395 40.23C193.322 40.23 192.356 40.0537 191.497 39.701C190.654 39.333 189.964 38.8117 189.427 38.137L191.267 36.55C191.727 37.0713 192.241 37.447 192.808 37.677C193.376 37.907 193.974 38.022 194.602 38.022C194.863 38.022 195.093 37.9913 195.292 37.93C195.507 37.8687 195.691 37.7767 195.844 37.654C195.998 37.5313 196.113 37.3933 196.189 37.24C196.281 37.0713 196.327 36.8873 196.327 36.688C196.327 36.32 196.189 36.0287 195.913 35.814C195.76 35.7067 195.515 35.5917 195.177 35.469C194.855 35.3463 194.434 35.2237 193.912 35.101C193.084 34.8863 192.394 34.641 191.842 34.365C191.29 34.0737 190.861 33.7517 190.554 33.399C190.294 33.1077 190.094 32.778 189.956 32.41C189.834 32.042 189.772 31.6433 189.772 31.214C189.772 30.6773 189.887 30.1943 190.117 29.765C190.363 29.3203 190.692 28.937 191.106 28.615C191.52 28.293 192.003 28.0477 192.555 27.879C193.107 27.7103 193.682 27.626 194.28 27.626C194.894 27.626 195.484 27.7027 196.051 27.856C196.634 28.0093 197.171 28.2317 197.661 28.523C198.167 28.799 198.597 29.1363 198.949 29.535L197.385 31.26C197.094 30.984 196.772 30.7387 196.419 30.524C196.082 30.3093 195.737 30.1407 195.384 30.018C195.032 29.88 194.702 29.811 194.395 29.811C194.104 29.811 193.843 29.8417 193.613 29.903C193.383 29.949 193.192 30.0257 193.038 30.133C192.885 30.2403 192.762 30.3783 192.67 30.547C192.594 30.7003 192.555 30.8843 192.555 31.099C192.571 31.283 192.617 31.4593 192.693 31.628C192.785 31.7813 192.908 31.9117 193.061 32.019C193.23 32.1263 193.483 32.249 193.82 32.387C194.158 32.525 194.595 32.6553 195.131 32.778C195.883 32.9773 196.511 33.1997 197.017 33.445C197.523 33.6903 197.922 33.974 198.213 34.296C198.505 34.572 198.712 34.894 198.834 35.262C198.957 35.63 199.018 36.0363 199.018 36.481C199.018 37.2017 198.811 37.8457 198.397 38.413C197.999 38.9803 197.447 39.425 196.741 39.747C196.051 40.069 195.269 40.23 194.395 40.23ZM202.821 40V24.797H205.65V40H202.821ZM200.429 30.501V27.879H208.295V30.501H200.429ZM215.881 40.23C214.669 40.23 213.588 39.9617 212.638 39.425C211.687 38.873 210.936 38.1217 210.384 37.171C209.832 36.2203 209.556 35.1393 209.556 33.928C209.556 32.7167 209.832 31.6357 210.384 30.685C210.936 29.7343 211.687 28.9907 212.638 28.454C213.588 27.902 214.669 27.626 215.881 27.626C217.077 27.626 218.15 27.902 219.101 28.454C220.051 28.9907 220.795 29.7343 221.332 30.685C221.884 31.6357 222.16 32.7167 222.16 33.928C222.16 35.1393 221.884 36.2203 221.332 37.171C220.795 38.1217 220.051 38.873 219.101 39.425C218.15 39.9617 217.077 40.23 215.881 40.23ZM215.881 37.723C216.54 37.723 217.123 37.5543 217.629 37.217C218.15 36.8797 218.556 36.4273 218.848 35.86C219.154 35.2927 219.3 34.6487 219.285 33.928C219.3 33.192 219.154 32.5403 218.848 31.973C218.556 31.4057 218.15 30.961 217.629 30.639C217.123 30.3017 216.54 30.133 215.881 30.133C215.221 30.133 214.623 30.3017 214.087 30.639C213.565 30.961 213.159 31.4133 212.868 31.996C212.576 32.5633 212.431 33.2073 212.431 33.928C212.431 34.6487 212.576 35.2927 212.868 35.86C213.159 36.4273 213.565 36.8797 214.087 37.217C214.623 37.5543 215.221 37.723 215.881 37.723ZM224.69 40V27.879H227.473L227.519 31.743L227.128 30.869C227.297 30.2557 227.588 29.7037 228.002 29.213C228.416 28.7223 228.892 28.339 229.428 28.063C229.98 27.7717 230.555 27.626 231.153 27.626C231.414 27.626 231.659 27.649 231.889 27.695C232.135 27.741 232.334 27.7947 232.487 27.856L231.728 30.961C231.56 30.869 231.353 30.7923 231.107 30.731C230.862 30.6697 230.617 30.639 230.371 30.639C229.988 30.639 229.62 30.7157 229.267 30.869C228.93 31.007 228.631 31.2063 228.37 31.467C228.11 31.7277 227.903 32.0343 227.749 32.387C227.611 32.7243 227.542 33.1077 227.542 33.537V40H224.69ZM239.535 40.23C238.263 40.23 237.136 39.9617 236.154 39.425C235.188 38.8883 234.429 38.16 233.877 37.24C233.341 36.3047 233.072 35.239 233.072 34.043C233.072 33.0923 233.226 32.226 233.532 31.444C233.839 30.662 234.261 29.9873 234.797 29.42C235.349 28.8373 236.001 28.3927 236.752 28.086C237.519 27.764 238.355 27.603 239.259 27.603C240.057 27.603 240.8 27.7563 241.49 28.063C242.18 28.3697 242.778 28.7913 243.284 29.328C243.79 29.8493 244.174 30.478 244.434 31.214C244.71 31.9347 244.841 32.7243 244.825 33.583L244.802 34.572H234.981L234.452 32.64H242.433L242.065 33.031V32.525C242.019 32.0497 241.866 31.6357 241.605 31.283C241.345 30.915 241.007 30.6313 240.593 30.432C240.195 30.2173 239.75 30.11 239.259 30.11C238.508 30.11 237.872 30.2557 237.35 30.547C236.844 30.8383 236.461 31.26 236.2 31.812C235.94 32.3487 235.809 33.0233 235.809 33.836C235.809 34.618 235.97 35.3003 236.292 35.883C236.63 36.4657 237.097 36.918 237.695 37.24C238.309 37.5467 239.022 37.7 239.834 37.7C240.402 37.7 240.923 37.608 241.398 37.424C241.874 37.24 242.387 36.9103 242.939 36.435L244.342 38.39C243.928 38.7733 243.453 39.103 242.916 39.379C242.395 39.6397 241.843 39.8467 241.26 40C240.678 40.1533 240.103 40.23 239.535 40.23Z" fill="white"/>
<defs>
<clipPath id="clip0_1_28">
<rect width="26.339" height="26" fill="white" transform="translate(25 20)"/>
</clipPath>
</defs>
</svg>
