<svg width="49" height="49" viewBox="0 0 49 49" fill="none" xmlns="http://www.w3.org/2000/svg">
<path d="M21.6995 28.9324H16.8774C16.8774 23.1774 19.1636 17.658 23.233 13.5886C27.3025 9.51912 32.8219 7.23293 38.5769 7.23293V12.055C29.2461 12.055 21.6995 19.6017 21.6995 28.9324ZM38.5769 21.6993V16.8772C31.9224 16.8772 26.5216 22.2779 26.5216 28.9324H31.3438C31.3438 24.9301 34.5746 21.6993 38.5769 21.6993ZM12.0553 4.82187C12.0553 2.1456 9.90945 -0.000244141 7.23317 -0.000244141C4.5569 -0.000244141 2.41106 2.1456 2.41106 4.82187C2.41106 7.49815 4.5569 9.64399 7.23317 9.64399C9.90945 9.64399 12.0553 7.49815 12.0553 4.82187ZM22.7845 6.0274H17.9624C17.6826 7.71164 16.8141 9.24192 15.5116 10.3457C14.2091 11.4496 12.5571 12.0553 10.8498 12.055H0V21.6993H14.4663V16.2503C16.7003 15.5458 18.6787 14.202 20.1571 12.3851C21.6354 10.5682 22.5489 8.35789 22.7845 6.0274ZM40.988 36.1656C43.6643 36.1656 45.8101 34.0198 45.8101 31.3435C45.8101 28.6672 43.6643 26.5214 40.988 26.5214C38.3117 26.5214 36.1659 28.6672 36.1659 31.3435C36.1659 34.0198 38.3117 36.1656 40.988 36.1656ZM37.3714 38.5767C35.6641 38.5769 34.0121 37.9712 32.7096 36.8674C31.407 35.7636 30.5386 34.2333 30.2588 32.549H25.4367C25.6723 34.8795 26.5857 37.0899 28.0641 38.9068C29.5424 40.7236 31.5209 42.0674 33.7548 42.7719V48.2209H48.2212V38.5767H37.3714Z" fill="#F19025"/>
</svg>
