<svg width="45" height="48" viewBox="0 0 45 48" fill="none" xmlns="http://www.w3.org/2000/svg">
<path d="M29.936 0.876059L5.91569 14.2631C5.04753 14.7469 4.73598 15.8429 5.21983 16.7111L14.3035 33.0098C14.7873 33.878 15.8833 34.1896 16.7515 33.7057L40.7718 20.3187C41.6399 19.8348 41.9515 18.7388 41.4676 17.8707L32.384 1.57193C31.9002 0.703766 30.8042 0.392215 29.936 0.876059Z" fill="#F19025" fill-opacity="0.26"/>
<path d="M39.7841 15.3013H7.20779C6.21391 15.3013 5.4082 16.107 5.4082 17.1009V40.456C5.4082 41.4499 6.21391 42.2556 7.20779 42.2556H39.7841C40.778 42.2556 41.5837 41.4499 41.5837 40.456V17.1009C41.5837 16.107 40.778 15.3013 39.7841 15.3013Z" fill="#F19025"/>
<path fill-rule="evenodd" clip-rule="evenodd" d="M41.5837 17.4217C41.4401 17.8105 41.1622 18.152 40.7718 18.3696L16.7514 31.7565C15.8832 32.2404 14.7872 31.9288 14.3034 31.0607L5.4082 15.0999C5.40871 14.1064 6.21422 13.3013 7.20778 13.3013H39.7841C39.8625 13.3013 39.9398 13.3063 40.0155 13.316L41.4677 15.9216C41.5134 16.0036 41.552 16.0876 41.5837 16.173V17.4217Z" fill="#364330"/>
<path d="M35.9084 32.3251C37.2795 32.3251 38.391 31.2136 38.391 29.8425C38.391 28.4714 37.2795 27.3599 35.9084 27.3599C34.5373 27.3599 33.4258 28.4714 33.4258 29.8425C33.4258 31.2136 34.5373 32.3251 35.9084 32.3251Z" fill="white"/>
</svg>
