<svg width="39" height="43" viewBox="0 0 39 43" fill="none" xmlns="http://www.w3.org/2000/svg">
<path d="M5.38111 31.2594L18.5999 42.2703C18.867 42.4812 19.1764 42.5937 19.4999 42.5937C19.8233 42.5937 20.1327 42.4812 20.3999 42.2703L33.6186 31.2594C37.9499 27.6312 39.8905 21.7531 38.5545 16.2687L34.9264 1.47499C34.8779 1.26735 34.7814 1.07396 34.6446 0.910346C34.5078 0.746727 34.3347 0.617425 34.1389 0.532805C33.9438 0.442237 33.7301 0.398862 33.5151 0.406191C33.3002 0.41352 33.0899 0.471347 32.9014 0.574993C26.0811 4.20312 20.4842 0.771868 20.2592 0.631243C20.0324 0.486633 19.7689 0.409812 19.4999 0.409812C19.2308 0.409812 18.9674 0.486633 18.7405 0.631243C18.5155 0.771868 12.9186 4.20312 6.0983 0.574993C5.71861 0.364055 5.25455 0.349993 4.8608 0.532805C4.46705 0.701555 4.17173 1.05312 4.0733 1.47499L0.445172 16.2687C-0.890766 21.7531 1.0358 27.6312 5.38111 31.2594ZM14.5077 16.9578C13.8273 15.964 13.4645 14.7872 13.467 13.5828C13.4669 12.7905 13.6229 12.006 13.926 11.274C14.2291 10.542 14.6735 9.87691 15.2337 9.31669C15.794 8.75646 16.4591 8.3121 17.1911 8.00896C17.923 7.70583 18.7076 7.54987 19.4999 7.54999C20.2921 7.54987 21.0767 7.70583 21.8087 8.00896C22.5407 8.3121 23.2058 8.75646 23.766 9.31669C24.3262 9.87691 24.7706 10.542 25.0737 11.274C25.3768 12.006 25.5328 12.7905 25.5327 13.5828C25.5334 14.7848 25.176 15.9598 24.5061 16.9578C25.5045 17.4641 26.4327 18.1109 27.2342 18.9125C29.3014 20.9937 30.4405 23.7359 30.4405 26.6469C30.4405 27.4203 29.8077 28.0531 29.0342 28.0531C28.2608 28.0531 27.628 27.4203 27.628 26.6469C27.628 24.4812 26.7842 22.4422 25.2374 20.9094C24.3669 20.0322 23.3023 19.3722 22.1295 18.9828C21.3133 19.393 20.4134 19.6096 19.4999 19.6156C18.5925 19.6092 17.6983 19.3976 16.8842 18.9969C13.6217 20.0937 11.3717 23.1594 11.3717 26.6469C11.3717 27.4203 10.7389 28.0531 9.96548 28.0531C9.19205 28.0531 8.55923 27.4203 8.55923 26.6469C8.55923 22.4984 10.9217 18.8 14.5077 16.9578Z" fill="#F19025"/>
</svg>
