<svg width="33" height="39" viewBox="0 0 33 39" fill="none" xmlns="http://www.w3.org/2000/svg">
<path d="M32.747 16.3931V29.34C32.747 33.3825 29.4601 36.6694 25.4167 36.6694H21.0573C20.8677 37.3191 20.4728 37.8899 19.9316 38.2963C19.3905 38.7028 18.7322 38.923 18.0555 38.9241H15.3705C14.9593 38.9233 14.5524 38.8413 14.173 38.6828C13.7937 38.5244 13.4493 38.2925 13.1598 38.0006C12.8688 37.7127 12.6377 37.3699 12.48 36.992C12.3223 36.6142 12.2411 36.2088 12.2411 35.7994C12.2433 34.971 12.574 34.1773 13.1607 33.5924C13.7473 33.0075 14.542 32.6791 15.3705 32.6794H18.0555C18.8955 32.6794 19.6773 33 20.2661 33.5888C20.6401 33.9619 20.913 34.4147 21.0573 34.9069H25.4167C26.8939 34.9049 28.3099 34.3173 29.3545 33.2729C30.3991 32.2285 30.987 30.8125 30.9892 29.3353V28.4916C30.802 28.545 30.6082 28.5715 30.4136 28.5703H26.5679C26.0076 28.5693 25.4704 28.3463 25.0742 27.95C24.6779 27.5538 24.4549 27.0166 24.4539 26.4563V16.5469C24.4549 15.9865 24.6779 15.4494 25.0742 15.0531C25.4704 14.6569 26.0076 14.4338 26.5679 14.4328H30.4136C30.5642 14.4334 30.7144 14.4497 30.8617 14.4816C29.9251 7.39313 23.8436 1.90313 16.5001 1.90313C9.16982 1.90313 3.09201 7.37438 2.13857 14.445C2.21357 14.4366 2.28857 14.4319 2.36357 14.4319H6.20732C6.76787 14.4326 7.30525 14.6556 7.7017 15.0518C8.09815 15.4481 8.32133 15.9854 8.32232 16.5459V26.46C8.32133 27.0204 8.09828 27.5575 7.70203 27.9538C7.30579 28.35 6.76864 28.5731 6.20826 28.5741H2.36264C1.80242 28.5728 1.26552 28.3497 0.86947 27.9535C0.473423 27.5572 0.250502 27.0202 0.249512 26.46V16.5469C0.249512 16.4944 0.249512 16.4456 0.253262 16.3931H0.249512C0.249512 14.2088 0.679825 12.0863 1.53201 10.0828C2.3515 8.15278 3.53636 6.39937 5.02139 4.91907C6.50168 3.43404 8.2551 2.24918 10.1851 1.42969C12.1818 0.579753 14.3301 0.143159 16.5001 0.146257C18.6845 0.146257 20.807 0.577507 22.8105 1.42969C24.7405 2.24922 26.4939 3.43408 27.9742 4.91907C29.4592 6.39941 30.644 8.15282 31.4636 10.0828C32.3137 12.0775 32.7503 14.2239 32.747 16.3922V16.3931Z" fill="#F19025"/>
</svg>
