<svg width="39" height="28" viewBox="0 0 39 28" fill="none" xmlns="http://www.w3.org/2000/svg">
<path d="M29.7502 25.1042C29.0705 25.1042 28.4188 24.8342 27.9382 24.3536C27.4576 23.8731 27.1877 23.2213 27.1877 22.5417C27.1877 21.862 27.4576 21.2103 27.9382 20.7297C28.4188 20.2491 29.0705 19.9792 29.7502 19.9792C30.4298 19.9792 31.0816 20.2491 31.5621 20.7297C32.0427 21.2103 32.3127 21.862 32.3127 22.5417C32.3127 23.2213 32.0427 23.8731 31.5621 24.3536C31.0816 24.8342 30.4298 25.1042 29.7502 25.1042ZM32.3127 9.72916L35.661 14H28.0418V9.72916M9.25016 25.1042C8.57055 25.1042 7.91876 24.8342 7.4382 24.3536C6.95764 23.8731 6.68766 23.2213 6.68766 22.5417C6.68766 21.862 6.95764 21.2103 7.4382 20.7297C7.91876 20.2491 8.57055 19.9792 9.25016 19.9792C9.92978 19.9792 10.5816 20.2491 11.0621 20.7297C11.5427 21.2103 11.8127 21.862 11.8127 22.5417C11.8127 23.2213 11.5427 23.8731 11.0621 24.3536C10.5816 24.8342 9.92978 25.1042 9.25016 25.1042ZM33.1668 7.16666H28.0418V0.333328H4.12516C2.22891 0.333328 0.708496 1.85374 0.708496 3.74999V22.5417H4.12516C4.12516 23.9009 4.66512 25.2045 5.62624 26.1656C6.58737 27.1267 7.89093 27.6667 9.25016 27.6667C10.6094 27.6667 11.913 27.1267 12.8741 26.1656C13.8352 25.2045 14.3752 23.9009 14.3752 22.5417H24.6252C24.6252 23.9009 25.1651 25.2045 26.1262 26.1656C27.0874 27.1267 28.3909 27.6667 29.7502 27.6667C31.1094 27.6667 32.413 27.1267 33.3741 26.1656C34.3352 25.2045 34.8752 23.9009 34.8752 22.5417H38.2918V14L33.1668 7.16666Z" fill="#F19025"/>
</svg>
