<svg width="45" height="45" viewBox="0 0 45 45" fill="none" xmlns="http://www.w3.org/2000/svg">
<g clip-path="url(#clip0_302_727)">
<path d="M15.7049 38.97C17.8199 37.935 18.4499 36.855 18.1349 34.74C19.3499 34.875 20.4299 34.605 21.2849 33.705C22.1399 32.805 22.4099 31.725 22.1849 30.555C22.7699 30.465 23.3999 30.465 23.9399 30.285C26.3699 29.52 27.1349 26.46 25.2899 24.66C24.1649 23.535 22.9499 22.41 21.7799 21.33C18.7199 18.405 11.6999 11.745 11.2949 11.34C10.8457 10.8961 10.5892 10.2932 10.5808 9.66172C10.5724 9.03022 10.8127 8.42076 11.2499 7.965C12.1499 7.02 13.6349 6.93 14.6249 7.875C16.1099 9.225 23.2649 16.065 25.4249 18.045C26.0099 18.585 26.6399 19.035 27.4049 19.35C28.4399 19.755 29.3849 19.665 30.1949 18.9C30.5999 18.54 32.5799 15.39 33.2999 14.265C34.2449 12.78 36.2249 12.51 37.5749 13.59C38.6999 14.49 38.9699 16.11 38.2049 17.415C37.0799 19.26 33.7499 24.84 33.1649 25.74C33.1028 25.8403 33.0663 25.9542 33.0584 26.0719C33.0506 26.1896 33.0717 26.3074 33.1199 26.415C33.6599 27.45 34.1549 28.53 34.6499 29.61C36.3599 33.12 35.0549 36.99 31.5899 38.7C29.2499 39.87 26.8649 40.995 24.4799 42.12C22.9909 42.8166 21.2963 42.9352 19.7248 42.453C18.1532 41.9707 16.8169 40.9219 15.9749 39.51L15.7049 38.97Z" fill="#F19025"/>
<path d="M12.0152 22.275C12.3752 22.275 12.9602 22.455 13.4102 22.905C15.7952 25.155 18.1802 27.36 20.5202 29.61C21.4652 30.51 21.5102 32.04 20.6102 32.985C19.6652 33.975 18.1802 34.02 17.1902 33.12C14.8269 30.9087 12.4719 28.6887 10.1252 26.46C9.40516 25.74 9.18016 24.705 9.58516 23.76C9.90016 22.86 10.8002 22.275 12.0152 22.275ZM25.2902 27.405C25.2452 28.08 24.8402 28.845 23.8952 29.295C22.9952 29.7 22.0952 29.61 21.3302 28.98C20.2052 27.99 15.4802 23.49 14.2202 22.275C13.5452 21.645 13.2752 20.88 13.5002 19.935C13.9502 18.045 16.1102 17.415 17.5502 18.72C18.4502 19.53 19.3052 20.385 20.2052 21.24C21.5552 22.5 22.8602 23.805 24.2102 25.065C24.8402 25.56 25.2902 26.19 25.2902 27.405ZM8.91016 27.54C9.54016 27.54 10.1252 27.855 10.6202 28.305C12.2402 29.835 16.1102 33.48 16.4252 33.795C17.4602 34.785 17.5052 36.315 16.5602 37.305C15.6152 38.25 14.1302 38.295 13.0952 37.305C11.2052 35.505 9.31516 33.75 7.42516 31.95C6.70516 31.275 6.21016 30.51 6.43516 29.475C6.66016 28.305 7.65016 27.495 8.91016 27.54ZM30.9602 10.71C30.4652 10.665 30.1502 10.485 29.9702 10.125C29.7902 9.72 29.8352 9.36 30.1052 9.045C30.1952 8.91 30.3302 8.82 30.4652 8.73L33.0302 6.84C33.5702 6.48 34.1552 6.525 34.4702 6.975C34.8302 7.425 34.6952 8.01 34.2002 8.415C33.3002 9.09 32.4002 9.765 31.5002 10.395C31.3652 10.575 31.0952 10.665 30.9602 10.71ZM22.9052 7.74C22.9052 8.235 22.6802 8.595 22.3202 8.73C21.9602 8.865 21.4652 8.82 21.2402 8.505C20.4649 7.50379 19.7147 6.48348 18.9902 5.445C18.6752 4.995 18.8552 4.455 19.2602 4.14C19.6652 3.87 20.2502 3.915 20.5652 4.365C21.2959 5.33203 22.0159 6.30709 22.7252 7.29C22.8152 7.425 22.8602 7.65 22.9052 7.74ZM28.3502 8.46C27.6302 8.46 27.2252 7.785 27.4952 7.065C27.6302 6.66 27.8552 6.255 28.0352 5.895C28.3502 5.22 28.6202 4.545 28.9352 3.87C29.1602 3.375 29.6552 3.15 30.1502 3.285C30.6902 3.465 30.9602 4.005 30.7352 4.545C30.2524 5.69698 29.7422 6.8373 29.2052 7.965C29.0702 8.325 28.7552 8.46 28.3502 8.46ZM26.0552 6.57C26.0552 7.29 25.7402 7.695 25.2002 7.74C24.6602 7.785 24.2102 7.425 24.1202 6.795C23.9852 5.67 23.8502 4.545 23.7602 3.375C23.7602 3.15 23.7602 2.88 23.8952 2.655C23.9756 2.48167 24.114 2.34186 24.2866 2.2597C24.4591 2.17754 24.6549 2.1582 24.8402 2.205C25.2902 2.295 25.5602 2.52 25.6502 2.97C25.7402 3.78 25.8302 4.635 25.9202 5.445C25.9652 5.895 26.0102 6.3 26.0552 6.57Z" fill="#F19025"/>
</g>
<defs>
<clipPath id="clip0_302_727">
<rect width="45" height="45" fill="white"/>
</clipPath>
</defs>
</svg>
