<svg width="64" height="17" viewBox="0 0 64 17" fill="none" xmlns="http://www.w3.org/2000/svg">
<path d="M4.92544 13.3403C4.18434 13.3403 3.50596 13.2515 2.89028 13.0741C2.286 12.8967 1.74443 12.6361 1.26556 12.2923C0.798104 11.9485 0.376249 11.5327 0 11.0448L1.60761 9.26492C2.16628 10.019 2.71925 10.5347 3.26653 10.8119C3.8252 11.078 4.42948 11.2111 5.07936 11.2111C5.43281 11.2111 5.74635 11.1667 6.01998 11.078C6.30502 10.9782 6.52735 10.8396 6.68697 10.6622C6.84659 10.4848 6.9264 10.2741 6.9264 10.0301C6.9264 9.85266 6.8865 9.69186 6.80669 9.5477C6.72688 9.39245 6.61286 9.25938 6.46464 9.14848C6.31642 9.0265 6.1397 8.92115 5.93447 8.83244C5.72925 8.73263 5.50122 8.64946 5.25038 8.58292C4.99955 8.5053 4.72592 8.44431 4.42948 8.39995C3.79099 8.25579 3.23232 8.0839 2.75346 7.8843C2.2746 7.6736 1.87554 7.41854 1.5563 7.11913C1.23706 6.80863 0.99763 6.45931 0.838009 6.07118C0.68979 5.68306 0.61568 5.24503 0.61568 4.75709C0.61568 4.25807 0.729695 3.79786 0.957725 3.37647C1.18575 2.94398 1.4993 2.57249 1.89835 2.26199C2.3088 1.95148 2.77626 1.71306 3.30073 1.54672C3.8366 1.38038 4.40097 1.29721 4.99385 1.29721C5.72355 1.29721 6.36203 1.38038 6.9093 1.54672C7.45657 1.70197 7.92973 1.92931 8.32878 2.22872C8.73924 2.52813 9.08128 2.89408 9.35492 3.32657L7.73021 4.8569C7.49078 4.5464 7.22854 4.2858 6.9435 4.0751C6.66987 3.8644 6.36773 3.70915 6.03709 3.60934C5.71784 3.49845 5.3872 3.443 5.04516 3.443C4.66891 3.443 4.34397 3.49291 4.07033 3.59271C3.79669 3.68143 3.58007 3.8145 3.42045 3.99193C3.27223 4.16936 3.19812 4.3856 3.19812 4.64066C3.19812 4.84026 3.24942 5.01769 3.35204 5.17295C3.45465 5.3282 3.60287 5.46681 3.79669 5.5888C3.99052 5.69969 4.22425 5.79949 4.49789 5.88821C4.77152 5.97692 5.07366 6.05455 5.4043 6.12109C6.03139 6.24307 6.59576 6.40387 7.09742 6.60347C7.59909 6.80308 8.02664 7.04705 8.38009 7.33537C8.74494 7.61261 9.02427 7.94529 9.2181 8.33342C9.41193 8.71045 9.50884 9.13739 9.50884 9.61424C9.50884 10.4016 9.31501 11.0725 8.92736 11.627C8.53971 12.1814 8.00384 12.6084 7.31975 12.9078C6.63566 13.1961 5.83756 13.3403 4.92544 13.3403Z" fill="#F19025"/>
<path d="M11.6955 13.1739V4.37451H14.124V13.1739H11.6955ZM12.8927 2.5614C12.4252 2.5614 12.0604 2.45051 11.7981 2.22872C11.5359 2.00693 11.4048 1.69088 11.4048 1.28058C11.4048 0.90354 11.5359 0.598582 11.7981 0.365705C12.0718 0.121739 12.4366 -0.000244141 12.8927 -0.000244141C13.3601 -0.000244141 13.725 0.116194 13.9872 0.349071C14.2494 0.570858 14.3806 0.881361 14.3806 1.28058C14.3806 1.66871 14.2437 1.97921 13.9701 2.21208C13.7079 2.44496 13.3487 2.5614 12.8927 2.5614Z" fill="#F19025"/>
<path d="M20.8395 16.9998C20.1212 16.9998 19.4143 16.8944 18.7188 16.6837C18.0233 16.4841 17.4589 16.2235 17.0257 15.9019L17.8808 14.2052C18.1088 14.3605 18.371 14.4991 18.6675 14.6211C18.9639 14.7431 19.2718 14.8373 19.591 14.9039C19.9216 14.9704 20.258 15.0037 20.6 15.0037C21.1929 15.0037 21.6775 14.915 22.0537 14.7375C22.4414 14.5601 22.7321 14.294 22.9259 13.9391C23.1198 13.5953 23.2167 13.1517 23.2167 12.6084V11.078L23.6271 11.1612C23.5587 11.5272 23.3706 11.8654 23.0628 12.1759C22.7549 12.4753 22.3673 12.7193 21.8998 12.9078C21.4323 13.0852 20.9535 13.1739 20.4632 13.1739C19.6195 13.1739 18.8727 12.9854 18.2228 12.6084C17.5729 12.2313 17.0599 11.7101 16.6836 11.0448C16.3074 10.3794 16.1192 9.61424 16.1192 8.74927C16.1192 7.86212 16.3017 7.08032 16.6665 6.40387C17.0428 5.71632 17.5501 5.17849 18.1886 4.79036C18.8385 4.39115 19.5739 4.19154 20.3948 4.19154C20.7368 4.19154 21.0618 4.23035 21.3696 4.30797C21.6889 4.3856 21.9796 4.49649 22.2418 4.64066C22.5155 4.77373 22.7549 4.92898 22.9601 5.10641C23.1768 5.27275 23.3535 5.45572 23.4903 5.65533C23.6271 5.85494 23.7126 6.05455 23.7468 6.25416L23.2509 6.38723L23.3193 4.37451H25.6452V12.5086C25.6452 13.2294 25.5369 13.867 25.3202 14.4215C25.1036 14.9759 24.7844 15.4417 24.3625 15.8187C23.9521 16.2069 23.4447 16.5007 22.8404 16.7003C22.2475 16.9 21.5806 16.9998 20.8395 16.9998ZM20.9079 11.2776C21.3867 11.2776 21.8029 11.1723 22.1563 10.9616C22.5212 10.7509 22.8005 10.457 22.9943 10.08C23.1882 9.70295 23.2851 9.25938 23.2851 8.74927C23.2851 8.25025 23.1882 7.81221 22.9943 7.43518C22.8005 7.04705 22.5212 6.74764 22.1563 6.53694C21.8029 6.32624 21.3867 6.22089 20.9079 6.22089C20.4404 6.22089 20.0243 6.33178 19.6594 6.55357C19.306 6.76427 19.0323 7.05814 18.8385 7.43518C18.6447 7.81221 18.5478 8.25025 18.5478 8.74927C18.5478 9.24829 18.6447 9.69186 18.8385 10.08C19.0323 10.457 19.306 10.7509 19.6594 10.9616C20.0243 11.1723 20.4404 11.2776 20.9079 11.2776Z" fill="#F19025"/>
<path d="M28.0581 13.1739V4.37451H30.384L30.4524 6.17099L29.9735 6.3706C30.0989 5.97138 30.3213 5.61098 30.6405 5.28938C30.9712 4.9567 31.3645 4.69056 31.8206 4.49095C32.2766 4.29134 32.7555 4.19154 33.2571 4.19154C33.9412 4.19154 34.5113 4.32461 34.9674 4.59075C35.4348 4.8569 35.7826 5.26166 36.0106 5.80504C36.25 6.33733 36.3698 6.99715 36.3698 7.78449V13.1739H33.9412V7.96747C33.9412 7.56825 33.8842 7.23557 33.7702 6.96942C33.6562 6.70328 33.4795 6.50921 33.24 6.38723C33.012 6.25416 32.727 6.19871 32.3849 6.22089C32.1113 6.22089 31.8548 6.26525 31.6153 6.35396C31.3873 6.43159 31.1878 6.54803 31.0168 6.70328C30.8571 6.85853 30.726 7.03596 30.6234 7.23557C30.5322 7.43518 30.4866 7.65142 30.4866 7.8843V13.1739H29.2894C29.0272 13.1739 28.7935 13.1739 28.5882 13.1739C28.383 13.1739 28.2063 13.1739 28.0581 13.1739Z" fill="#F19025"/>
<path d="M47.0537 13.3403C46.3924 13.3403 45.8223 13.2016 45.3435 12.9244C44.876 12.6361 44.5112 12.2313 44.2489 11.7101C43.9981 11.1778 43.8727 10.5402 43.8727 9.79721V4.37451H46.3012V9.41463C46.3012 9.81385 46.3696 10.1632 46.5064 10.4626C46.6432 10.7509 46.8371 10.9727 47.0879 11.1279C47.3387 11.2832 47.6466 11.3608 48.0114 11.3608C48.2737 11.3608 48.5188 11.322 48.7468 11.2444C48.9748 11.1557 49.1687 11.0337 49.3283 10.8784C49.4879 10.7232 49.6133 10.5402 49.7045 10.3295C49.7958 10.1188 49.8414 9.89147 49.8414 9.6475V4.37451H52.2699V13.1739H49.9611L49.8756 11.3608L50.3202 11.1612C50.1834 11.5715 49.9554 11.943 49.6361 12.2757C49.3169 12.6084 48.9349 12.869 48.4903 13.0575C48.0456 13.246 47.5668 13.3403 47.0537 13.3403Z" fill="#F19025"/>
<path d="M54.7135 16.8334V4.37451H57.0565L57.1249 6.35396L56.6802 6.20426C56.7601 5.8494 56.9539 5.52226 57.2617 5.22285C57.581 4.92344 57.9743 4.67947 58.4418 4.49095C58.9092 4.30243 59.3995 4.20817 59.9126 4.20817C60.6993 4.20817 61.3948 4.40778 61.999 4.807C62.6147 5.19512 63.0993 5.73296 63.4527 6.4205C63.8176 7.09695 64 7.87875 64 8.7659C64 9.64196 63.8233 10.4238 63.4698 11.1113C63.1164 11.7988 62.6318 12.3422 62.0161 12.7414C61.4005 13.1296 60.6993 13.3236 59.9126 13.3236C59.3881 13.3236 58.8864 13.2294 58.4076 13.0409C57.9401 12.8412 57.5411 12.5806 57.2104 12.2591C56.8798 11.9375 56.6745 11.5937 56.5947 11.2277L57.1591 10.9949V16.8334H54.7135ZM59.3653 11.2943C59.81 11.2943 60.2033 11.1889 60.5454 10.9782C60.8874 10.7675 61.1553 10.4737 61.3492 10.0966C61.543 9.7085 61.6399 9.26492 61.6399 8.7659C61.6399 8.26688 61.543 7.82885 61.3492 7.45181C61.1553 7.07477 60.8874 6.7809 60.5454 6.57021C60.2147 6.35951 59.8214 6.25416 59.3653 6.25416C58.9092 6.25416 58.5102 6.35951 58.1681 6.57021C57.8261 6.76981 57.5582 7.06368 57.3643 7.45181C57.1705 7.82885 57.0736 8.26688 57.0736 8.7659C57.0736 9.26492 57.1705 9.7085 57.3643 10.0966C57.5582 10.4737 57.8261 10.7675 58.1681 10.9782C58.5102 11.1889 58.9092 11.2943 59.3653 11.2943Z" fill="#F19025"/>
</svg>
