<svg width="33" height="39" viewBox="0 0 33 39" fill="none" xmlns="http://www.w3.org/2000/svg">
<path d="M32.7468 16.3931V29.34C32.7468 33.3825 29.4599 36.6694 25.4165 36.6694H21.0571C20.8675 37.3191 20.4725 37.8899 19.9314 38.2963C19.3902 38.7028 18.732 38.923 18.0552 38.9241H15.3702C14.9591 38.9233 14.5521 38.8413 14.1728 38.6828C13.7934 38.5244 13.4491 38.2925 13.1596 38.0006C12.8685 37.7127 12.6375 37.3699 12.4797 36.992C12.322 36.6142 12.2408 36.2088 12.2408 35.7994C12.2431 34.971 12.5738 34.1773 13.1604 33.5924C13.7471 33.0075 14.5418 32.6791 15.3702 32.6794H18.0552C18.8952 32.6794 19.6771 33 20.2658 33.5887C20.6399 33.9619 20.9127 34.4147 21.0571 34.9069H25.4165C26.8936 34.9049 28.3097 34.3173 29.3543 33.2729C30.3989 32.2285 30.9867 30.8125 30.989 29.3353V28.4916C30.8018 28.545 30.608 28.5715 30.4133 28.5703H26.5677C26.0073 28.5693 25.4702 28.3463 25.0739 27.95C24.6777 27.5538 24.4546 27.0166 24.4536 26.4562V16.5469C24.4546 15.9865 24.6777 15.4493 25.0739 15.0531C25.4702 14.6569 26.0073 14.4338 26.5677 14.4328H30.4133C30.564 14.4334 30.7142 14.4497 30.8615 14.4816C29.9249 7.39312 23.8433 1.90312 16.4999 1.90312C9.16958 1.90312 3.09177 7.37437 2.13833 14.445C2.21333 14.4366 2.28833 14.4319 2.36333 14.4319H6.20708C6.76762 14.4326 7.30501 14.6556 7.70146 15.0518C8.09791 15.4481 8.32109 15.9854 8.32208 16.5459V26.46C8.32109 27.0204 8.09804 27.5575 7.70179 27.9538C7.30554 28.35 6.7684 28.5731 6.20802 28.5741H2.36239C1.80218 28.5728 1.26527 28.3497 0.869225 27.9534C0.473179 27.5572 0.250258 27.0202 0.249268 26.46V16.5469C0.249268 16.4944 0.249268 16.4456 0.253018 16.3931H0.249268C0.249268 14.2088 0.679581 12.0862 1.53177 10.0828C2.35125 8.15278 3.53611 6.39936 5.02114 4.91906C6.50144 3.43403 8.25486 2.24917 10.1849 1.42969C12.1816 0.579746 14.3298 0.143151 16.4999 0.146249C18.6843 0.146249 20.8068 0.577499 22.8102 1.42969C24.7402 2.24921 26.4936 3.43407 27.974 4.91906C29.4589 6.3994 30.6438 8.15281 31.4633 10.0828C32.3135 12.0775 32.7501 14.2239 32.7468 16.3922V16.3931Z" fill="#F19025"/>
</svg>
