<svg width="34" height="34" viewBox="0 0 34 34" fill="none" xmlns="http://www.w3.org/2000/svg">
<path d="M17 34C12.6556 34 8.87022 32.5594 5.644 29.6782C2.41652 26.7983 0.566667 23.2019 0.0944443 18.8889H3.96667C4.40741 22.163 5.86311 24.8704 8.33378 27.0111C10.8057 29.1518 13.6944 30.2222 17 30.2222C20.6833 30.2222 23.8076 28.939 26.3727 26.3727C28.939 23.8076 30.2222 20.6833 30.2222 17C30.2222 13.3167 28.939 10.1918 26.3727 7.62544C23.8076 5.06033 20.6833 3.77778 17 3.77778C14.8278 3.77778 12.7972 4.28148 10.9083 5.28889C9.01944 6.2963 7.42963 7.68148 6.13889 9.44444H11.3333V13.2222H0V1.88889H3.77778V6.32778C5.38333 4.31296 7.34337 2.75463 9.65789 1.65278C11.9711 0.550926 14.4185 0 17 0C19.3611 0 21.573 0.448296 23.6357 1.34489C25.6971 2.24274 27.4915 3.45478 29.019 4.981C30.5452 6.50848 31.7573 8.30293 32.6551 10.3643C33.5517 12.427 34 14.6389 34 17C34 19.3611 33.5517 21.5724 32.6551 23.6338C31.7573 25.6964 30.5452 27.4909 29.019 29.0171C27.4915 30.5446 25.6971 31.7573 23.6357 32.6551C21.573 33.5517 19.3611 34 17 34ZM22.2889 24.9333L15.1111 17.7556V7.55556H18.8889V16.2444L24.9333 22.2889L22.2889 24.9333Z" fill="#F19025"/>
</svg>
