<svg width="37" height="38" viewBox="0 0 37 38" fill="none" xmlns="http://www.w3.org/2000/svg">
<path d="M19.8909 13.7181C19.523 13.3502 19.0937 13.1662 18.6032 13.1662C18.1126 13.1662 17.6833 13.3502 17.3154 13.7181L11.6124 19.4212C11.2751 19.7584 11.1144 20.1877 11.1304 20.7089C11.1451 21.2302 11.3211 21.6595 11.6583 21.9967C12.0263 22.3647 12.4555 22.5486 12.9461 22.5486C13.4367 22.5486 13.866 22.3647 14.2339 21.9967L18.6032 17.6275L23.0184 22.0427C23.3557 22.38 23.7849 22.5413 24.3062 22.5266C24.8274 22.5106 25.2567 22.334 25.594 21.9967C25.9619 21.6288 26.1459 21.1995 26.1459 20.7089C26.1459 20.2184 25.9619 19.7891 25.594 19.4212L19.8909 13.7181ZM18.6032 0.472414C21.1481 0.472415 23.5396 0.955638 25.7779 1.92209C28.0162 2.88731 29.9632 4.19778 31.6189 5.85349C33.2746 7.50921 34.5851 9.45621 35.5503 11.6945C36.5168 13.9328 37 16.3244 37 18.8693C37 21.4142 36.5168 23.8058 35.5503 26.044C34.5851 28.2823 33.2746 30.2293 31.6189 31.885C29.9632 33.5408 28.0162 34.8518 25.7779 35.8183C23.5396 36.7835 21.148 37.2661 18.6032 37.2661C16.0583 37.2661 13.6667 36.7835 11.4284 35.8183C9.1901 34.8518 7.2431 33.5407 5.58738 31.885C3.93166 30.2293 2.6212 28.2823 1.65598 26.044C0.689527 23.8057 0.206304 21.4142 0.206304 18.8693C0.206304 16.3244 0.689528 13.9328 1.65598 11.6945C2.6212 9.45621 3.93167 7.50921 5.58738 5.85349C7.2431 4.19777 9.1901 2.88731 11.4284 1.92209C13.6667 0.955637 16.0583 0.472414 18.6032 0.472414ZM18.6032 4.15179C14.5252 4.15178 11.0525 5.5849 8.18502 8.45113C5.31879 11.3186 3.88568 14.7913 3.88568 18.8693C3.88567 22.9472 5.31879 26.4199 8.18502 29.2874C11.0525 32.1536 14.5252 33.5867 18.6032 33.5867C22.6811 33.5867 26.1532 32.1536 29.0194 29.2874C31.8869 26.4199 33.3206 22.9472 33.3206 18.8693C33.3206 14.7913 31.8869 11.3186 29.0194 8.45113C26.1532 5.5849 22.6811 4.15179 18.6032 4.15179Z" fill="#364330"/>
</svg>
