<svg width="9" height="13" viewBox="0 0 9 13" fill="none" xmlns="http://www.w3.org/2000/svg">
<path d="M8.7382 6.90717L1.98591 12.5685C1.81368 12.6921 1.59214 12.7568 1.36556 12.7494C1.13897 12.7421 0.924034 12.6634 0.763694 12.5289C0.603355 12.3944 0.509423 12.2142 0.500671 12.0243C0.491919 11.8343 0.568991 11.6486 0.716485 11.5042L6.82955 6.375L0.716485 1.24584C0.568991 1.10143 0.491919 0.915688 0.500671 0.72571C0.509423 0.535734 0.603355 0.355523 0.763694 0.221089C0.924034 0.0866558 1.13897 0.0079009 1.36556 0.000562948C1.59214 -0.006775 1.81368 0.0578442 1.98591 0.181507L8.7382 5.84283C8.90588 5.98426 9 6.17558 9 6.375C9 6.57442 8.90588 6.76574 8.7382 6.90717Z" fill="#F19025"/>
</svg>
